<?xml version="1.0" encoding="UTF-8" standalone="no"?>
<svg xmlns:rdf="http://www.w3.org/1999/02/22-rdf-syntax-ns#" xmlns="http://www.w3.org/2000/svg" enable-background="new 0 0 243 134.1" xml:space="preserve" height="221.7" width="400" version="1.1" y="0px" x="0px" xmlns:cc="http://creativecommons.org/ns#" xmlns:dc="http://purl.org/dc/elements/1.1/" viewBox="0 0 400 221.71039"><g transform="translate(-.2072 87.42)"><g fill-rule="evenodd" stroke="#000" stroke-width="5.004px"><path d="m57.27 41.11c-26.89-15.95-49.41-34.4-49.41-34.4-16.26-17.82 11.26-6.877 11.26-6.877l47.22 16.57-0.6255 4.378-13.76 5.944 5.314 14.39z" fill="#fff"/><path d="m96.67-37.38c15.32-15.64 35.97-25.02 67.24-28.46 29.71 0.3102 43.47-1.251 77.56 18.45 9.067 6.88 29.4 15.01 23.46 29.09-9.382 18.45-9.697 17.2-14.39 34.08-4.693 16.89-0.9407 15.32-6.565 23.14-10.01 10.63-2.812 10.01-15.64 15.64-19.7-8.131-15.95-6.565-26.89-8.131-18.76-1.561-18.76-2.192-42.22 9.067-15.64 2.502-3.442 3.753-19.39 1.876-38.2-18.77-28.2-24.72-47.6-29.41-19.39-4.69-23.14-0.62-25.02-9.38 0.63-17.51 16.27-42.22 29.4-55.98z" fill="#4b8eb4"/><path d="m62.9 43.61c26.51 0.9457 33.22 19.14 45.97 25.02 15.38 3.813 25.16 11.88 42.84 12.51 19.5-9.382 48.43-8.446 75.36-0.9407 14.28 0.3102 21-9.857 33.77-37.53 6.83-21.08 7.981-40.38 18.45-50.66 6.099-4.964 10.49-11.57-1.876-16.57-13.77-2.812-19.6 12.93-26.89 36.59-4.333 20.87-12.76 46.25-27.52 37.53-25.98-8.741-15.44-5.944-27.83-6.565-23.2 1.561-42.01 19.47-72.24 3.127-22.4-16.41-29.93-20.56-56.66-27.21-5.92-1.57-31.6 1.36-3.44 24.7z" fill="#fff"/><path d="m60.24 43.3c-1.841 1.841-12.69 11.62-18.61 22.52-6.004 11.07-7.325 22.57-0.3102 37.84 5.499 14.44 21.22 16.09 39.72 21.58 7.866-1.316 13.61 3.588 20.64-4.378 5.729-6.355 9.937-4.448 4.693-16.26-11.01-17.57-13.47-28.94-3.5-38.79-2.8-7.2-6.1-10.83-21.23-19.7-5.42-1.99-12.3-4.04-21.42-2.82" fill="#fff"/></g><path d="m121.7 74.26c-4.854 6.42-4.378 7.255-3.127 15.95 3.442 8.151 2.207 11.42 16.26 13.13 16.24-4.929 16.42-14.7 16.57-21.89-18.03-0.6254-26.59-8.696-29.71-7.195z" fill-opacity=".8074" fill-rule="evenodd" stroke="#000" stroke-width="5.004px" fill="#424242"/><path d="m147.3 109c1.126 11.7 16.56 17.93 40.65 21.89 18.18-1.236 33.78 7.165 45.66-10.63 2.142-13.26-0.9056-32.83-10.95-40.97-10.69-9.382-46.25-10.08-61.92-4.063-13.58 7.43-15.54 23.23-13.45 33.77z" fill-rule="evenodd" stroke="#000" stroke-width="5.004px" fill="#fff"/><g stroke="#000" stroke-width="5.004px" fill="none"><path d="m97.62 86.77c-21.79-3.13-37.43-4.56-45.04 28.43 25.03 11.18 41.63 12.41 47.84 7.816 17.25-12.15-0.5304-25.17-2.812-36.28z"/><path d="m229 90.52c-19.7 1.056-37.75 7.956-49.1 36.59 3.142 3.723 4.243 3.688 9.697 4.063 12.79-0.6405 26.28 2.026 35.65-2.192 15.98-10.5 6.184-37.43 3.442-37.84"/><path d="m74.16 86.46c4.924 7.886 10.86 14.56 6.565 37.22"/><path d="m86.67 85.52c5.584 10.41 10.95 20.51 7.816 39.09"/><path d="m194.9 102.1c6.895 2.272 16.12 11.31 18.45 29.71"/><path d="m208.9 93.34c7.921 7.6 16.7 13.31 17.2 34.08"/></g><g stroke="#000" stroke-width="5.004px"><path d="m240.5 76.76c-1.936 15.72 4.869 39.33 23.14 39.4 27.85 2.867 34.76-7.1 41.28-16.89 5.119-18.71-14.39-38.47-28.15-50.98-5.484-4.894-6.3-4.693-13.13-5.004-10.43 3.753-12.74 30.57-23.46 33.46" fill-rule="evenodd" fill="#fff"/><path d="m261.2 114.9c21.15 6.76 25.71 0.5604 40.03-9.697 9.537-9.537 3.422-30.66-10.01-41.91-12.88 3.382-43.28 26.46-30.02 51.6z" fill-rule="evenodd" fill="#fff"/><path d="m264.9 82.7c-0.105-0.105 15.47 7.786 19.7 30.96" fill="none"/><path d="m276.8 73.32c5.469 4.914 17.53 12.71 21.89 32.83" fill="none"/><path d="m316.5-33.94c4.638-27.73 4.673-28.06 13.45-36.59 20.49-13.1-4.178 62.81 38.15 35.97 2.076 3.498 14.89 1.941 19.07 6.88 10.57 9.417 12.2 13.61 9.382 17.82-10.63 17.94-14.85 9.842-29.08 14.7-2.977 8.606-10.12 10.58-34.4 10.95-15.75 1.356-18.08 11.63-25.02 18.14-7.641 5.974-15.72 17.95-46.59 7.816 7.255-20.63 3.347-40.04 20.32-51.91 19.48 2.035 29.6-9.355 34.71-23.77z" fill-rule="evenodd" fill="#fff"/><path d="m338.7-14.24c5.914 10.5 13.79 17.2 31.27 17.82" fill="none"/><ellipse fill-rule="evenodd" rx="16.89" ry="26.89" cy="-58.02" cx="374.4" fill="#0079bb"/><ellipse fill-rule="evenodd" rx="16.89" ry="26.89" cy="-54.58" cx="354.7" fill="#0079bb"/></g><g><ellipse rx="7.195" ry="11.1" cy="-50.99" cx="360.6"/><ellipse rx="6.57" ry="10.63" cy="-55.68" cx="381.3"/><ellipse rx="7.205" ry="11.11" cy="-50.99" cx="360.7"/><ellipse rx="6.555" ry="10.61" cy="-55.69" cx="381.2"/></g></g><g transform="translate(-.2072 87.42)"><g transform="matrix(1.651 0 0 1.651 -.1348 -87.39)"><path d="m102.8 63.29q-2.83 1.299-6.193 2.273-3.34 0.9509-6.471 0.9509-4.036 0-7.399-1.113t-5.729-3.34q-2.389-2.25-3.688-5.613-1.299-3.386-1.299-7.909 0-8.28 4.824-13.06 4.847-4.801 13.29-4.801 2.946 0 6.007 0.719 3.085 0.6958 6.633 2.389v5.45h-0.4175q-0.719-0.5566-2.087-1.461-1.368-0.9045-2.69-1.508-1.6-0.719-3.641-1.183-2.018-0.4871-4.592-0.4871-5.798 0-9.185 3.734-3.363 3.711-3.363 10.07 0 6.703 3.525 10.44 3.525 3.711 9.602 3.711 2.227 0 4.43-0.4407 2.227-0.4407 3.896-1.136v-8.466h-9.254v-4.036h13.8v14.82z"/><path d="m115.2 35.59h-4.917v-4.523h4.917v4.523zm-0.2783 30.24h-4.36v-25.91h4.36v25.91z"/><path d="m136.9 65.61q-1.229 0.3247-2.69 0.5334-1.438 0.2087-2.574 0.2087-3.966 0-6.03-2.134t-2.064-6.842v-13.78h-2.946v-3.665h2.946v-7.445h4.36v7.445h8.999v3.665h-8.999v11.81q0 2.041 0.0928 3.201 0.0928 1.136 0.6494 2.134 0.5102 0.9277 1.392 1.368 0.9045 0.4175 2.737 0.4175 1.067 0 2.227-0.3015 1.16-0.3247 1.67-0.5334h0.2319v3.92z"/></g></g></svg>